<svg width="230" height="80" viewBox="0 0 230 80" fill="none" xmlns="http://www.w3.org/2000/svg">
<path d="M21.8341 10.861C21.6782 9.40379 21.0209 8.2692 19.8624 7.45718C18.715 6.64517 17.2223 6.23916 15.3843 6.23916C14.0921 6.23916 12.9837 6.43382 12.0591 6.82315C11.1345 7.21247 10.4271 7.74083 9.937 8.40824C9.44685 9.07565 9.19621 9.83761 9.18507 10.6941C9.18507 11.406 9.3466 12.0234 9.66965 12.5462C10.0038 13.069 10.455 13.5139 11.0231 13.881C11.5912 14.2369 12.2206 14.5373 12.9113 14.782C13.6019 15.0267 14.2982 15.2325 15 15.3994L18.2082 16.2002C19.5004 16.5006 20.7425 16.9066 21.9344 17.4183C23.1375 17.9299 24.2125 18.5751 25.1593 19.3538C26.1173 20.1324 26.8748 21.0723 27.4318 22.1736C27.9888 23.2748 28.2673 24.5651 28.2673 26.0445C28.2673 28.0468 27.7549 29.8098 26.73 31.3337C25.7052 32.8465 24.2236 34.0312 22.2853 34.8877C20.3581 35.7331 18.0244 36.1558 15.284 36.1558C12.6217 36.1558 10.3102 35.7442 8.3496 34.9211C6.40016 34.0979 4.87403 32.8966 3.7712 31.3171C2.67952 29.7375 2.08912 27.8132 2 25.544H8.09896C8.18807 26.7342 8.55568 27.7242 9.20178 28.5139C9.84788 29.3037 10.6889 29.8933 11.7249 30.2826C12.772 30.6719 13.9417 30.8666 15.2339 30.8666C16.5818 30.8666 17.7626 30.6663 18.7763 30.2659C19.8012 29.8543 20.6032 29.287 21.1825 28.564C21.7617 27.8298 22.0569 26.9733 22.0681 25.9945C22.0569 25.1046 21.7952 24.3704 21.2827 23.792C20.7703 23.2025 20.0518 22.713 19.1272 22.3237C18.2138 21.9233 17.1443 21.5673 15.919 21.2559L12.0257 20.2548C9.20735 19.5317 6.97942 18.4361 5.34189 16.9678C3.71551 15.4883 2.90231 13.525 2.90231 11.0779C2.90231 9.06453 3.44815 7.30145 4.53984 5.78866C5.64266 4.27587 7.14095 3.10234 9.03469 2.26808C10.9284 1.42269 13.0728 1 15.4678 1C17.8963 1 20.0239 1.42269 21.8509 2.26808C23.6889 3.10234 25.1315 4.26474 26.1786 5.75529C27.2257 7.23471 27.766 8.93661 27.7994 10.861H21.8341Z" fill="#E8E8E8"/>
<path d="M46.3428 10.01V14.6819H31.5883V10.01H46.3428ZM35.231 3.86986H41.2798V27.93C41.2798 28.742 41.4023 29.3649 41.6474 29.7987C41.9036 30.2214 42.2378 30.5106 42.65 30.6663C43.0621 30.8221 43.5189 30.8999 44.0201 30.8999C44.3989 30.8999 44.7442 30.8721 45.0561 30.8165C45.3792 30.7609 45.6242 30.7108 45.7913 30.6663L46.8106 35.3883C46.4876 35.4995 46.0253 35.6218 45.4237 35.7553C44.8333 35.8888 44.1093 35.9667 43.2515 35.9889C41.7365 36.0334 40.3719 35.8054 39.1577 35.3048C37.9435 34.7931 36.9799 34.0034 36.2669 32.9355C35.5651 31.8677 35.2198 30.5329 35.231 28.9311V3.86986Z" fill="#E8E8E8"/>
<path d="M67.7601 24.8599V10.01H73.8089V35.6385H67.9439V31.0835H67.6766C67.0973 32.5184 66.1449 33.6919 64.8193 34.604C63.5048 35.5162 61.884 35.9722 59.9568 35.9722C58.2747 35.9722 56.7876 35.5996 55.4954 34.8543C54.2143 34.0979 53.2117 33.0023 52.4877 31.5673C51.7636 30.1213 51.4015 28.3749 51.4015 26.3282V10.01H57.4504V25.3938C57.4504 27.0178 57.896 28.3082 58.7871 29.2648C59.6783 30.2214 60.848 30.6997 62.2961 30.6997C63.1873 30.6997 64.0506 30.4828 64.8861 30.049C65.7216 29.6152 66.4067 28.97 66.9414 28.1135C67.4872 27.2459 67.7601 26.1613 67.7601 24.8599Z" fill="#E8E8E8"/>
<path d="M89.5535 36.089C87.5372 36.089 85.7326 35.5718 84.1396 34.5373C82.5466 33.5028 81.2878 32.0012 80.3632 30.0323C79.4387 28.0634 78.9764 25.6719 78.9764 22.8576C78.9764 20.01 79.4442 17.6074 80.38 15.6496C81.3268 13.6808 82.6023 12.1958 84.2064 11.1947C85.8105 10.1824 87.5984 9.67632 89.5702 9.67632C91.074 9.67632 92.3105 9.93216 93.2797 10.4438C94.2488 10.9444 95.0175 11.5506 95.5856 12.2625C96.1537 12.9633 96.5937 13.6252 96.9056 14.2481H97.1563V1.46719H103.222V35.6385H97.2732V31.6007H96.9056C96.5937 32.2236 96.1426 32.8855 95.5522 33.5863C94.9618 34.2759 94.182 34.8654 93.2128 35.3549C92.2437 35.8443 91.0239 36.089 89.5535 36.089ZM91.2411 31.1335C92.5222 31.1335 93.6138 30.7887 94.5162 30.099C95.4185 29.3983 96.1036 28.425 96.5714 27.1791C97.0393 25.9333 97.2732 24.4817 97.2732 22.8243C97.2732 21.1669 97.0393 19.7264 96.5714 18.5028C96.1147 17.2792 95.4352 16.3282 94.5329 15.6496C93.6417 14.9711 92.5444 14.6318 91.2411 14.6318C89.8932 14.6318 88.7681 14.9822 87.8658 15.683C86.9635 16.3838 86.284 17.3515 85.8272 18.5862C85.3705 19.8209 85.1421 21.2336 85.1421 22.8243C85.1421 24.4261 85.3705 25.8554 85.8272 27.1124C86.2951 28.3582 86.9802 29.3426 87.8825 30.0657C88.796 30.7776 89.9155 31.1335 91.2411 31.1335Z" fill="#E8E8E8"/>
<path d="M113.427 45.2492C112.603 45.2492 111.84 45.1825 111.138 45.049C110.447 44.9266 109.896 44.782 109.484 44.6152L110.887 39.91C111.767 40.1658 112.553 40.2881 113.243 40.277C113.934 40.2659 114.541 40.049 115.065 39.6263C115.599 39.2147 116.05 38.5251 116.418 37.5573L116.936 36.1725L107.629 10.01H114.045L119.961 29.3649H120.228L126.16 10.01H132.593L122.317 38.742C121.838 40.0991 121.203 41.2615 120.412 42.2292C119.621 43.2081 118.652 43.9533 117.504 44.465C116.368 44.9878 115.009 45.2492 113.427 45.2492Z" fill="#E8E8E8"/>
<path d="M136.779 45.2492V10.01H142.727V14.2481H143.078C143.39 13.6252 143.83 12.9633 144.398 12.2625C144.966 11.5506 145.735 10.9444 146.704 10.4438C147.673 9.93216 148.91 9.67632 150.414 9.67632C152.396 9.67632 154.184 10.1824 155.777 11.1947C157.381 12.1958 158.651 13.6808 159.587 15.6496C160.534 17.6074 161.007 20.01 161.007 22.8576C161.007 25.6719 160.545 28.0634 159.62 30.0323C158.696 32.0012 157.437 33.5028 155.844 34.5373C154.251 35.5718 152.447 36.089 150.43 36.089C148.96 36.089 147.74 35.8443 146.771 35.3549C145.802 34.8654 145.022 34.2759 144.432 33.5863C143.852 32.8855 143.401 32.2236 143.078 31.6007H142.827V45.2492H136.779ZM142.71 22.8243C142.71 24.4817 142.944 25.9333 143.412 27.1791C143.891 28.425 144.576 29.3983 145.468 30.099C146.37 30.7887 147.462 31.1335 148.743 31.1335C150.079 31.1335 151.199 30.7776 152.101 30.0657C153.003 29.3426 153.683 28.3582 154.14 27.1124C154.608 25.8554 154.842 24.4261 154.842 22.8243C154.842 21.2336 154.613 19.8209 154.156 18.5862C153.7 17.3515 153.02 16.3838 152.118 15.683C151.216 14.9822 150.09 14.6318 148.743 14.6318C147.45 14.6318 146.353 14.9711 145.451 15.6496C144.548 16.3282 143.863 17.2792 143.396 18.5028C142.939 19.7264 142.71 21.1669 142.71 22.8243Z" fill="#E8E8E8"/>
<path d="M172.236 1.46719V35.6385H166.187V1.46719H172.236Z" fill="#E8E8E8"/>
<path d="M185.842 36.1558C184.215 36.1558 182.751 35.8666 181.447 35.2881C180.155 34.6986 179.13 33.831 178.373 32.6852C177.626 31.5395 177.253 30.1268 177.253 28.4472C177.253 27.0011 177.52 25.8054 178.055 24.8599C178.59 23.9144 179.32 23.158 180.244 22.5907C181.169 22.0234 182.21 21.5951 183.369 21.3059C184.538 21.0056 185.747 20.7887 186.995 20.6552C188.499 20.4995 189.718 20.3604 190.654 20.2381C191.59 20.1046 192.269 19.9044 192.693 19.6374C193.127 19.3593 193.344 18.9311 193.344 18.3526V18.2525C193.344 16.9956 192.971 16.0223 192.225 15.3326C191.478 14.643 190.403 14.2981 189 14.2981C187.518 14.2981 186.343 14.6207 185.474 15.2659C184.616 15.911 184.037 16.673 183.736 17.5517L178.089 16.7509C178.534 15.1936 179.269 13.8921 180.294 12.8465C181.319 11.7898 182.572 11 184.054 10.4772C185.535 9.94328 187.173 9.67632 188.966 9.67632C190.203 9.67632 191.434 9.82092 192.659 10.1101C193.885 10.3993 195.004 10.8777 196.018 11.5451C197.032 12.2013 197.845 13.0968 198.457 14.2314C199.081 15.366 199.393 16.7842 199.393 18.4861V35.6385H193.578V32.118H193.378C193.01 32.8299 192.492 33.4973 191.824 34.1202C191.167 34.732 190.337 35.227 189.334 35.6052C188.343 35.9722 187.179 36.1558 185.842 36.1558ZM187.412 31.7175C188.627 31.7175 189.679 31.4783 190.571 31C191.462 30.5106 192.147 29.8654 192.626 29.0646C193.116 28.2637 193.361 27.3905 193.361 26.445V23.4249C193.172 23.5807 192.849 23.7253 192.392 23.8588C191.946 23.9922 191.445 24.109 190.888 24.2092C190.331 24.3093 189.78 24.3983 189.234 24.4761C188.688 24.554 188.215 24.6207 187.813 24.6763C186.911 24.7987 186.104 24.9989 185.391 25.277C184.678 25.5551 184.115 25.9444 183.703 26.445C183.291 26.9344 183.085 27.5684 183.085 28.3471C183.085 29.4594 183.491 30.2993 184.304 30.8666C185.118 31.4339 186.154 31.7175 187.412 31.7175Z" fill="#E8E8E8"/>
<path d="M211.524 20.6218V35.6385H205.475V10.01H211.257V14.3649H211.558C212.148 12.9299 213.089 11.7898 214.382 10.9444C215.685 10.099 217.295 9.67632 219.211 9.67632C220.982 9.67632 222.525 10.0545 223.839 10.8109C225.165 11.5673 226.19 12.663 226.914 14.0979C227.649 15.5328 228.011 17.2737 228 19.3204V35.6385H221.951V20.2548C221.951 18.5417 221.505 17.2014 220.614 16.2336C219.734 15.2659 218.514 14.782 216.955 14.782C215.897 14.782 214.955 15.0156 214.131 15.4828C213.318 15.9388 212.677 16.6007 212.209 17.4683C211.753 18.336 211.524 19.3871 211.524 20.6218Z" fill="#E8E8E8"/>
<path d="M126.088 65.7853C126.088 58.487 132.013 52.5706 139.322 52.5706H181.901C189.21 52.5706 195.135 58.487 195.135 65.7853C195.135 73.0836 189.21 79 181.901 79H139.322C132.013 79 126.088 73.0836 126.088 65.7853Z" fill="#334867"/>
<path d="M36.328 65.7852C36.328 58.487 42.253 52.5705 49.5619 52.5705H92.1405C99.4494 52.5705 105.374 58.487 105.374 65.7852C105.374 73.0835 99.4494 78.9999 92.1405 78.9999H49.5619C42.253 78.9999 36.328 73.0835 36.328 65.7852Z" fill="#69C0F6"/>
<path d="M70.8512 65.7853C70.8512 58.487 76.7763 52.5706 84.0851 52.5706H126.664C133.973 52.5706 139.898 58.487 139.898 65.7853C139.898 73.0836 133.973 79 126.664 79H84.0851C76.7763 79 70.8512 73.0836 70.8512 65.7853Z" fill="#649FFD"/>
<path d="M112.739 65.7853C112.739 58.487 118.664 52.5706 125.973 52.5706H145.536C152.845 52.5706 158.77 58.487 158.77 65.7853C158.77 73.0836 152.845 79 145.536 79H125.973C118.664 79 112.739 73.0836 112.739 65.7853Z" fill="#5B79FF"/>
</svg>
